<svg xmlns="http://www.w3.org/2000/svg" viewBox="0 0 458.9 350.71"><defs><style>.cls-1{fill:#069;}.cls-2{fill:#6c9;}.cls-3{fill:#036;}</style></defs><g id="Capa_2" data-name="Capa 2"><g id="Capa_1-2" data-name="Capa 1"><path class="cls-1" d="M62.46,59.85h0a2.68,2.68,0,0,0-1.77.81L.67,123a2.43,2.43,0,0,0-.34,2.89L126.34,341l.16.28h0a1,1,0,0,0,1.94-.36l18.82-134.11a11.47,11.47,0,0,0-1.47-7.4L64.1,60.73A1.78,1.78,0,0,0,62.46,59.85Z"/><path class="cls-2" d="M393.45,157.42c-22.45,9.29-124.12,48.92-228.36,50.33a2.16,2.16,0,0,0-2.1,1.84L143.2,348.93a1.55,1.55,0,0,0,1.54,1.78h0c183.3-.87,291.34-66.75,312-80.58a4.82,4.82,0,0,0,1.53-6.35L400.46,159.86A5.58,5.58,0,0,0,393.45,157.42Z"/><path class="cls-3" d="M301.38,1.09a2.38,2.38,0,0,0-2.61-1c-16.41,4.33-149.4,39.16-219.6,49.11h0a1.78,1.78,0,0,0-.39.13,3,3,0,0,0-1.27,4.32l80.26,136.09a7.66,7.66,0,0,0,6.73,3.79c105.1-1.94,203.38-41.64,223-50a3.28,3.28,0,0,0,1.49-4.78C376.36,118.88,309.76,14.17,301.38,1.09ZM279.85,136.25,258.38,99.93A3.08,3.08,0,0,0,255,98.5l-32.82,7.74a3.09,3.09,0,0,0-1.94,4.58l19.58,33a3.07,3.07,0,0,1-1.94,4.57l-9.14,2.16a3.07,3.07,0,0,1-3.35-1.43L173.68,62a3.09,3.09,0,0,1,1.94-4.58l9.14-2.15a3.08,3.08,0,0,1,3.36,1.42l20.75,35a3.09,3.09,0,0,0,3.36,1.43l32.86-7.76A3.07,3.07,0,0,0,247,80.74L228.33,49.07a3.08,3.08,0,0,1,1.94-4.57L238,42.68a3.1,3.1,0,0,1,3.34,1.4L294.18,131a3.08,3.08,0,0,1-1.92,4.6l-9.05,2.14A3.06,3.06,0,0,1,279.85,136.25Z"/></g></g></svg>